<svg id="appstore_kz" xmlns="http://www.w3.org/2000/svg" viewBox="0 0 119.664 40"><style>.st0{fill:#b1b3b6}.st1,.st2{fill:#FFF}.st2{stroke:#FFF;stroke-width:.15;stroke-miterlimit:10}</style><path class="st0" d="M110.135 0H9.535c-.367 0-.73 0-1.095.002-.306.002-.61.008-.92.013C6.856.03 6.183.072 5.518.19A6.444 6.444 0 0 0 .194 5.52c-.12.664-.162 1.334-.18 2.003-.008.307-.01.615-.014.92V31.56c.005.31.006.61.015.92.017.67.06 1.34.18 2.003a6.59 6.59 0 0 0 .624 1.904c.302.596.7 1.145 1.177 1.614.473.48 1.02.876 1.62 1.18.608.313 1.23.51 1.9.63.665.12 1.338.16 2.004.178.31.007.614.01.92.01.366.002.728.002 1.095.002h100.6c.36 0 .725 0 1.084-.002.304 0 .616-.004.92-.01.67-.02 1.343-.06 2-.178a6.783 6.783 0 0 0 1.91-.63 6.254 6.254 0 0 0 1.616-1.18 6.41 6.41 0 0 0 1.182-1.614 6.58 6.58 0 0 0 .62-1.904c.122-.662.16-1.332.185-2.002.004-.31.004-.61.004-.922.008-.363.008-.725.008-1.094V9.536c0-.366 0-.73-.008-1.092 0-.307 0-.614-.004-.92-.023-.67-.063-1.34-.186-2.003a6.623 6.623 0 0 0-.62-1.902 6.457 6.457 0 0 0-2.8-2.8 6.743 6.743 0 0 0-1.906-.627c-.657-.118-1.33-.16-2-.176-.304-.005-.616-.01-.92-.013h-1.085z"/><path d="M8.445 39.125c-.305 0-.602-.004-.904-.01-.558-.017-1.22-.048-1.868-.164a5.87 5.87 0 0 1-1.657-.547 5.41 5.41 0 0 1-1.397-1.017 5.347 5.347 0 0 1-1.02-1.396 5.722 5.722 0 0 1-.544-1.657C.932 33.66.9 32.978.888 32.458c-.006-.21-.015-.913-.015-.913v-23.1s.01-.692.015-.896c.013-.525.044-1.207.166-1.873a5.698 5.698 0 0 1 .543-1.66 5.557 5.557 0 0 1 2.417-2.42 5.818 5.818 0 0 1 1.653-.545C6.34.932 7.023.9 7.543.887l.902-.012h102.77l.912.013c.513.013 1.195.043 1.858.163a5.93 5.93 0 0 1 1.67.55 5.555 5.555 0 0 1 2.415 2.42c.26.51.435 1.052.536 1.648.116.63.152 1.28.174 1.887.003.283.003.587.003.89.008.375.008.732.008 1.092v20.93c0 .362 0 .717-.007 1.074 0 .326 0 .624-.004.93-.022.59-.058 1.237-.172 1.855a5.75 5.75 0 0 1-.54 1.67c-.27.52-.612.99-1.016 1.386-.413.42-.882.76-1.4 1.024a5.873 5.873 0 0 1-1.667.55c-.64.116-1.304.147-1.87.163-.292.007-.6.01-.896.01l-1.085.003-101.69-.005z"/><g id="XMLID_22_"><g id="XMLID_23_"><path id="XMLID_25_" class="st1" d="M24.77 20.3c-.026-2.75 2.25-4.088 2.356-4.15-1.29-1.882-3.29-2.14-3.99-2.16-1.68-.175-3.308 1.006-4.164 1.006-.872 0-2.19-.987-3.61-.958-1.825.028-3.535 1.086-4.472 2.728-1.934 3.348-.49 8.27 1.36 10.976.928 1.325 2.01 2.806 3.43 2.753 1.386-.058 1.904-.884 3.578-.884 1.66 0 2.145.885 3.59.852 1.49-.024 2.427-1.33 3.322-2.67 1.07-1.52 1.5-3.015 1.518-3.092-.035-.012-2.89-1.1-2.92-4.4z"/><path id="XMLID_24_" class="st1" d="M22.037 12.21c.746-.932 1.256-2.2 1.115-3.49-1.08.048-2.43.746-3.208 1.66-.688.804-1.302 2.122-1.144 3.36 1.213.09 2.46-.61 3.237-1.53z"/></g></g><path class="st1" d="M42.302 17.715H37.57L36.43 21.07h-2.005L38.91 8.654h2.083l4.483 12.418h-2.04l-1.134-3.355zm-4.243-1.548h3.75l-1.85-5.447h-.05l-1.85 5.447zM55.16 16.546c0 2.813-1.506 4.62-3.778 4.62-1.29 0-2.314-.576-2.85-1.583h-.042v4.484h-1.858v-12.05h1.8v1.507h.033c.517-.972 1.618-1.6 2.883-1.6 2.297 0 3.812 1.816 3.812 4.622zm-1.91 0c0-1.833-.947-3.038-2.393-3.038-1.42 0-2.375 1.23-2.375 3.038 0 1.824.955 3.046 2.375 3.046 1.445 0 2.393-1.197 2.393-3.046zM65.125 16.546c0 2.813-1.506 4.62-3.778 4.62-1.29 0-2.314-.576-2.85-1.583h-.042v4.484h-1.858v-12.05h1.8v1.507h.033c.517-.972 1.618-1.6 2.883-1.6 2.297 0 3.812 1.816 3.812 4.622zm-1.91 0c0-1.833-.948-3.038-2.394-3.038-1.42 0-2.374 1.23-2.374 3.038 0 1.824.955 3.046 2.375 3.046 1.447 0 2.394-1.197 2.394-3.046zM71.71 17.612c.138 1.23 1.334 2.04 2.97 2.04 1.565 0 2.692-.81 2.692-1.92 0-.963-.68-1.54-2.29-1.936l-1.608-.388c-2.28-.55-3.34-1.617-3.34-3.348 0-2.143 1.868-3.614 4.52-3.614 2.624 0 4.423 1.472 4.483 3.614H77.26c-.11-1.24-1.136-1.987-2.633-1.987s-2.52.757-2.52 1.858c0 .88.653 1.396 2.254 1.79l1.37.337c2.547.603 3.605 1.626 3.605 3.442 0 2.322-1.85 3.777-4.794 3.777-2.753 0-4.612-1.42-4.732-3.667h1.902zM83.346 9.876v2.143h1.722v1.47h-1.722v4.992c0 .775.345 1.137 1.102 1.137.19 0 .49-.027.61-.044v1.463c-.205.05-.618.085-1.03.085-1.834 0-2.55-.688-2.55-2.444v-5.19h-1.315v-1.472h1.316V9.876h1.866zM86.065 16.546c0-2.85 1.678-4.64 4.294-4.64 2.624 0 4.294 1.79 4.294 4.64 0 2.856-1.66 4.64-4.295 4.64-2.634-.002-4.295-1.784-4.295-4.64zm6.695 0c0-1.954-.896-3.107-2.4-3.107s-2.4 1.16-2.4 3.106c0 1.962.894 3.106 2.4 3.106s2.4-1.145 2.4-3.106zM96.186 12.018h1.772v1.54H98c.285-1.023 1.11-1.635 2.18-1.635.266 0 .49.035.636.07v1.737c-.146-.06-.474-.112-.835-.112-1.195 0-1.936.81-1.936 2.083v5.37h-1.858V12.02zM109.384 18.413c-.25 1.644-1.85 2.77-3.898 2.77-2.634 0-4.27-1.764-4.27-4.595 0-2.84 1.645-4.682 4.19-4.682 2.506 0 4.08 1.72 4.08 4.466v.637h-6.394v.11c0 1.55.973 2.565 2.436 2.565 1.032 0 1.842-.49 2.09-1.273h1.766zm-6.282-2.702h4.526c-.043-1.385-.93-2.297-2.22-2.297-1.282 0-2.21.93-2.306 2.298z"/><g><path class="st2" d="M35.017 30.492l2.144-5.508h.797l2.285 5.508H39.4l-.65-1.668h-2.336l-.613 1.668h-.783zm1.61-2.262h1.893l-.583-1.525c-.178-.463-.31-.844-.396-1.142-.07.353-.17.703-.3 1.052l-.613 1.615zM41.29 32.02V26.5h.626v.52c.147-.203.313-.354.5-.456s.41-.152.673-.152c.344 0 .65.088.913.263.264.176.463.423.598.742.136.32.203.67.203 1.05 0 .408-.075.776-.223 1.104-.148.327-.364.578-.647.752s-.58.26-.893.26c-.23 0-.434-.046-.615-.142a1.392 1.392 0 0 1-.447-.36v1.942h-.687zm.62-3.5c0 .514.106.894.317 1.14.21.244.466.367.766.367.305 0 .565-.127.782-.382.217-.254.326-.647.326-1.18 0-.51-.105-.89-.317-1.144s-.465-.38-.76-.38c-.292 0-.55.136-.775.405-.225.27-.337.662-.337 1.175zM49.305 31.623h-.61v-1.13h-.098l-.79-1.237c-.13-.202-.24-.344-.337-.424a.778.778 0 0 0-.52-.185v1.845h-.74v-3.99h.74v1.725c.275 0 .478-.08.61-.244.044-.053.145-.253.304-.6.11-.242.192-.402.247-.482.122-.182.26-.297.42-.345.118-.035.307-.053.567-.053h.148v.56l-.206-.003c-.207-.004-.352.045-.437.145-.028.032-.095.174-.202.424-.1.235-.19.4-.267.49a1.222 1.222 0 0 1-.473.324c.32.078.634.35.938.812l.448.68h.255v1.687zM50.465 26.502h.686v1.56h.87c.566 0 1.002.108 1.308.325.306.217.46.515.46.896 0 .333-.13.618-.384.854-.255.237-.664.355-1.225.355h-1.715v-3.99zm.685 3.435h.72c.435 0 .744-.053.93-.158a.528.528 0 0 0 .278-.493.63.63 0 0 0-.206-.462c-.137-.136-.44-.203-.91-.203h-.812v1.315zm3.15-3.435h.686v3.99H54.3v-3.99zM56.937 26.502h3.184v3.99h-.68v-3.43H57.62v1.987c0 .462-.015.768-.045.915-.03.148-.114.277-.25.388s-.336.165-.595.165c-.16 0-.344-.01-.552-.03v-.563h.3a.787.787 0 0 0 .306-.043.22.22 0 0 0 .122-.138c.02-.063.03-.267.03-.612v-2.63zM61.714 26.502h.686v1.56h.87c.565 0 1 .108 1.307.325.306.217.46.515.46.896 0 .333-.13.618-.384.854-.255.237-.664.355-1.225.355h-1.714v-3.99zm.686 3.435h.72c.435 0 .744-.053.93-.158a.528.528 0 0 0 .278-.493.63.63 0 0 0-.206-.462c-.137-.136-.44-.203-.91-.203H62.4v1.315zm3.15-3.435h.685v3.99h-.686v-3.99zM73.01 26.502v1.725c.218 0 .37-.04.46-.124.09-.082.22-.323.39-.72.16-.38.303-.62.43-.727.124-.103.322-.154.594-.154h.25v.56l-.186-.003c-.183 0-.3.025-.35.077-.054.056-.135.22-.244.492-.102.26-.195.44-.282.54-.086.1-.22.192-.403.274.296.078.586.35.867.812l.754 1.236h-.753l-.735-1.236c-.15-.25-.28-.414-.392-.492a.688.688 0 0 0-.4-.116v1.845h-.7v-1.845a.686.686 0 0 0-.396.114c-.11.077-.242.24-.393.494l-.733 1.236h-.755l.75-1.236c.285-.463.576-.733.873-.812-.203-.093-.346-.193-.427-.302-.08-.11-.203-.37-.365-.78-.057-.138-.116-.223-.18-.255a.673.673 0 0 0-.293-.05l-.202.005v-.56h.096c.264 0 .45.015.558.046.108.032.205.098.29.2s.195.312.333.633c.167.394.295.633.383.718.088.086.24.128.463.128V26.5h.7zM79.64 26.502l-1.53 3.99v1.53h-.685v-1.53l-1.535-3.99h.74l.84 2.31c.117.32.215.628.294.926.073-.273.173-.58.297-.925l.843-2.31h.738zM80.77 26.502h.687v1.725c.218 0 .37-.04.46-.124.086-.082.215-.323.385-.72.135-.317.244-.524.328-.625s.18-.168.29-.203.283-.053.524-.053h.138v.56l-.19-.003c-.18 0-.296.025-.347.077-.054.056-.135.22-.244.492-.103.26-.198.44-.284.54-.087.1-.22.192-.4.274.295.078.584.35.868.812l.75 1.236h-.754l-.73-1.236c-.15-.248-.282-.41-.394-.49s-.245-.118-.4-.118v1.845h-.685v-3.99zM84.45 26.502h3.288v.56h-1.303v3.43h-.682v-3.43H84.45v-.56zM91.62 29.207l.71.087c-.112.408-.32.725-.622.95-.302.226-.688.338-1.157.338-.59 0-1.06-.18-1.406-.54s-.52-.862-.52-1.51c0-.673.175-1.193.525-1.564.35-.37.804-.556 1.362-.556.54 0 .982.182 1.325.545s.515.874.515 1.532l-.004.18H89.33c.026.438.152.774.378 1.007.226.233.508.35.846.35.25 0 .466-.065.644-.195s.318-.34.423-.625zm-2.25-1.093h2.26c-.032-.336-.118-.588-.26-.756-.22-.26-.502-.39-.85-.39-.315 0-.58.103-.794.312-.215.208-.334.486-.356.834zM97.453 31.623h-.563v-1.13h-.564v-1.77h-1.9v1.77h-.686v-3.99h.686v1.66h1.9v-1.66h.686v3.434h.442v1.686zM98.592 25.762v-.777h.686v.777h-.686zm0 4.73v-3.99h.686v3.99h-.686zM101.762 28.688v-.53c.29-.002.487-.013.592-.033a.565.565 0 0 0 .3-.18.53.53 0 0 0 .14-.376.556.556 0 0 0-.184-.44.696.696 0 0 0-.48-.163c-.385 0-.655.225-.81.673l-.65-.105c.202-.75.692-1.123 1.47-1.123.43 0 .77.116 1.014.35.245.232.368.51.368.834 0 .325-.16.585-.48.777.203.108.355.245.457.41.1.168.15.365.15.593 0 .358-.13.65-.395.872-.265.223-.634.334-1.108.334-.922 0-1.456-.404-1.604-1.213l.644-.137c.06.256.177.453.356.594.18.14.384.21.615.21.23 0 .423-.064.576-.193a.614.614 0 0 0 .23-.494c0-.155-.048-.29-.145-.405s-.2-.188-.31-.216c-.11-.03-.307-.044-.594-.044l-.154.002z"/></g></svg>