<?xml version="1.0" encoding="utf-8"?>
<svg version="1.1" id="appstore_kz" xmlns="http://www.w3.org/2000/svg" x="0px" y="0px" viewBox="0 0 119.664 40" style="enable-background:new 0 0 119.664 40;" xml:space="preserve">
<style type="text/css">
.st0{fill:#B1B3B6;}
.st1{fill:#FFFFFF;}
.st2{fill:#FFFFFF;stroke:#FFFFFF;stroke-width:0.15;stroke-miterlimit:10;}
</style>
<g>
	<g>
		<path class="st0" d="M110.135,0H9.535C9.168,0,8.806,0,8.44,0.002C8.134,0.004,7.83,0.01,7.521,0.015
			C6.855,0.031,6.182,0.072,5.517,0.191C4.848,0.309,4.226,0.509,3.616,0.818C3.018,1.125,2.471,1.523,1.998,1.997
			C1.519,2.471,1.123,3.02,0.819,3.618C0.508,4.227,0.311,4.852,0.194,5.521C0.074,6.184,0.032,6.854,0.015,7.523
			C0.006,7.83,0.005,8.138,0,8.444C0,8.807,0,9.17,0,9.536v20.929c0,0.369,0,0.73,0,1.094c0.005,0.311,0.006,0.611,0.015,0.922
			c0.017,0.67,0.059,1.34,0.179,2.002c0.117,0.67,0.314,1.298,0.625,1.904c0.303,0.596,0.7,1.145,1.178,1.614
			c0.473,0.478,1.02,0.875,1.619,1.179c0.609,0.313,1.231,0.51,1.901,0.631c0.665,0.119,1.338,0.158,2.004,0.177
			c0.309,0.007,0.613,0.011,0.919,0.011C8.806,40,9.168,40,9.535,40h100.6c0.359,0,0.725,0,1.084-0.002
			c0.305,0,0.617-0.004,0.922-0.011c0.67-0.019,1.342-0.058,2-0.177c0.67-0.121,1.293-0.318,1.908-0.631
			c0.598-0.304,1.145-0.701,1.617-1.179c0.477-0.47,0.873-1.019,1.182-1.614c0.307-0.606,0.506-1.234,0.619-1.904
			c0.123-0.662,0.162-1.332,0.186-2.002c0.004-0.311,0.004-0.611,0.004-0.922c0.008-0.363,0.008-0.725,0.008-1.094V9.536
			c0-0.366,0-0.729-0.008-1.092c0-0.307,0-0.614-0.004-0.921c-0.023-0.67-0.063-1.34-0.186-2.002
			c-0.113-0.67-0.313-1.295-0.619-1.903c-0.309-0.599-0.705-1.147-1.182-1.621c-0.473-0.474-1.02-0.872-1.617-1.179
			c-0.615-0.31-1.238-0.51-1.908-0.627c-0.658-0.119-1.33-0.16-2-0.177c-0.305-0.005-0.617-0.011-0.922-0.013
			C110.859,0,110.494,0,110.135,0L110.135,0z"/>
		<path d="M8.445,39.125c-0.305,0-0.602-0.004-0.904-0.011c-0.559-0.016-1.222-0.047-1.869-0.163c-0.61-0.11-1.153-0.29-1.657-0.548
			c-0.521-0.265-0.99-0.606-1.397-1.017c-0.414-0.406-0.754-0.873-1.021-1.396c-0.259-0.505-0.437-1.047-0.543-1.657
			c-0.122-0.673-0.153-1.355-0.166-1.875c-0.006-0.211-0.015-0.913-0.015-0.913V8.444c0,0,0.009-0.691,0.015-0.895
			c0.013-0.524,0.044-1.206,0.166-1.872C1.16,5.064,1.337,4.522,1.597,4.016c0.266-0.524,0.606-0.994,1.015-1.398
			c0.414-0.414,0.884-0.757,1.402-1.022c0.514-0.261,1.055-0.439,1.653-0.544C6.341,0.931,7.023,0.9,7.543,0.887l0.902-0.012
			h102.769l0.913,0.013c0.513,0.013,1.195,0.043,1.858,0.163c0.603,0.105,1.147,0.285,1.671,0.548
			c0.513,0.263,0.982,0.605,1.392,1.016c0.409,0.406,0.752,0.878,1.023,1.404c0.258,0.511,0.434,1.053,0.535,1.649
			c0.116,0.631,0.152,1.279,0.174,1.887c0.003,0.283,0.003,0.587,0.003,0.89c0.008,0.375,0.008,0.732,0.008,1.092v20.929
			c0,0.363,0,0.718-0.008,1.075c0,0.325,0,0.623-0.004,0.93c-0.021,0.589-0.057,1.236-0.171,1.854
			c-0.104,0.613-0.279,1.155-0.54,1.67c-0.27,0.52-0.612,0.989-1.016,1.386c-0.413,0.418-0.882,0.759-1.399,1.023
			c-0.519,0.264-1.048,0.438-1.668,0.55c-0.641,0.116-1.304,0.147-1.869,0.163c-0.293,0.007-0.6,0.011-0.897,0.011l-1.084,0.002
			L8.445,39.125z"/>
	</g>
</g>
<g id="XMLID_22_">
	<g id="XMLID_23_">
		<path id="XMLID_25_" class="st1" d="M24.769,20.301c-0.025-2.751,2.252-4.089,2.357-4.152c-1.29-1.881-3.289-2.138-3.991-2.158
			c-1.679-0.176-3.307,1.005-4.163,1.005c-0.872,0-2.19-0.987-3.609-0.958c-1.826,0.028-3.536,1.086-4.473,2.728
			c-1.934,3.348-0.491,8.269,1.361,10.976c0.927,1.325,2.01,2.806,3.428,2.753c1.387-0.058,1.905-0.884,3.579-0.884
			c1.659,0,2.145,0.884,3.591,0.851c1.488-0.024,2.426-1.331,3.321-2.669c1.071-1.52,1.501-3.016,1.518-3.093
			C27.653,24.688,24.797,23.599,24.769,20.301z"/>
		<path id="XMLID_24_" class="st1" d="M22.037,12.211c0.746-0.933,1.256-2.202,1.115-3.491c-1.08,0.048-2.43,0.746-3.208,1.66
			c-0.688,0.804-1.302,2.122-1.144,3.361C20.013,13.831,21.259,13.129,22.037,12.211z"/>
	</g>
</g>
<g>
	<path class="st1" d="M42.302,17.715h-4.733l-1.137,3.356h-2.005l4.483-12.418h2.083l4.483,12.418h-2.039L42.302,17.715z
		 M38.059,16.167h3.752l-1.85-5.447H39.91L38.059,16.167z"/>
	<path class="st1" d="M55.16,16.546c0,2.813-1.506,4.621-3.778,4.621c-1.29,0-2.314-0.577-2.849-1.584H48.49v4.484h-1.858V12.018
		h1.799v1.506h0.034c0.517-0.972,1.618-1.601,2.883-1.601C53.645,11.924,55.16,13.74,55.16,16.546z M53.25,16.546
		c0-1.833-0.947-3.038-2.393-3.038c-1.42,0-2.375,1.23-2.375,3.038c0,1.824,0.955,3.046,2.375,3.046
		C52.302,19.591,53.25,18.395,53.25,16.546z"/>
	<path class="st1" d="M65.125,16.546c0,2.813-1.506,4.621-3.778,4.621c-1.29,0-2.314-0.577-2.849-1.584h-0.043v4.484h-1.858V12.018
		h1.799v1.506h0.034c0.517-0.972,1.618-1.601,2.883-1.601C63.61,11.924,65.125,13.74,65.125,16.546z M63.214,16.546
		c0-1.833-0.947-3.038-2.393-3.038c-1.42,0-2.375,1.23-2.375,3.038c0,1.824,0.955,3.046,2.375,3.046
		C62.267,19.591,63.214,18.395,63.214,16.546z"/>
	<path class="st1" d="M71.71,17.612c0.138,1.231,1.334,2.04,2.969,2.04c1.566,0,2.693-0.809,2.693-1.919
		c0-0.964-0.68-1.541-2.289-1.937l-1.609-0.388c-2.28-0.551-3.339-1.617-3.339-3.348c0-2.143,1.867-3.614,4.519-3.614
		c2.624,0,4.423,1.472,4.483,3.614h-1.876c-0.112-1.239-1.137-1.987-2.634-1.987s-2.521,0.757-2.521,1.858
		c0,0.878,0.654,1.395,2.255,1.79l1.368,0.336c2.548,0.603,3.606,1.626,3.606,3.442c0,2.323-1.851,3.778-4.794,3.778
		c-2.754,0-4.613-1.421-4.733-3.667H71.71z"/>
	<path class="st1" d="M83.346,9.876v2.143h1.722v1.472h-1.722v4.991c0,0.775,0.345,1.137,1.102,1.137
		c0.189,0,0.491-0.026,0.611-0.043v1.463c-0.206,0.052-0.619,0.086-1.032,0.086c-1.833,0-2.548-0.688-2.548-2.444V13.49h-1.316
		v-1.472h1.316V9.876H83.346z"/>
	<path class="st1" d="M86.065,16.546c0-2.849,1.678-4.639,4.294-4.639c2.625,0,4.295,1.79,4.295,4.639
		c0,2.856-1.661,4.639-4.295,4.639C87.726,21.184,86.065,19.402,86.065,16.546z M92.76,16.546c0-1.954-0.896-3.107-2.401-3.107
		s-2.4,1.162-2.4,3.107c0,1.962,0.895,3.106,2.4,3.106S92.76,18.507,92.76,16.546z"/>
	<path class="st1" d="M96.186,12.018h1.772v1.541h0.043c0.284-1.024,1.11-1.636,2.178-1.636c0.267,0,0.49,0.035,0.637,0.069v1.738
		c-0.146-0.061-0.474-0.112-0.835-0.112c-1.196,0-1.937,0.81-1.937,2.083v5.37h-1.858V12.018z"/>
	<path class="st1" d="M109.384,18.413c-0.25,1.644-1.851,2.771-3.898,2.771c-2.634,0-4.269-1.765-4.269-4.596
		c0-2.84,1.644-4.682,4.19-4.682c2.505,0,4.08,1.721,4.08,4.466v0.637h-6.395v0.112c0,1.549,0.973,2.564,2.436,2.564
		c1.032,0,1.842-0.49,2.091-1.273H109.384z M103.102,15.711h4.526c-0.043-1.386-0.93-2.298-2.221-2.298
		C104.126,13.413,103.197,14.342,103.102,15.711z"/>
</g>
<g>
	<path class="st2" d="M35.017,30.492l2.144-5.508h0.796l2.285,5.508H39.4l-0.651-1.668h-2.335l-0.613,1.668H35.017z M36.627,28.23
		h1.893l-0.583-1.525c-0.178-0.463-0.31-0.844-0.396-1.142c-0.071,0.353-0.171,0.703-0.301,1.052L36.627,28.23z"/>
	<path class="st2" d="M41.291,32.021v-5.52h0.625v0.519c0.147-0.203,0.313-0.354,0.499-0.456s0.41-0.152,0.674-0.152
		c0.345,0,0.65,0.088,0.914,0.263c0.264,0.176,0.463,0.423,0.598,0.742c0.135,0.319,0.202,0.67,0.202,1.05
		c0,0.408-0.075,0.776-0.223,1.104c-0.148,0.326-0.364,0.577-0.647,0.751s-0.581,0.261-0.893,0.261
		c-0.229,0-0.434-0.047-0.615-0.143c-0.181-0.095-0.331-0.215-0.447-0.36v1.942H41.291z M41.911,28.52
		c0,0.514,0.105,0.894,0.316,1.139c0.21,0.245,0.466,0.368,0.766,0.368c0.305,0,0.565-0.127,0.782-0.382
		c0.217-0.254,0.326-0.647,0.326-1.181c0-0.509-0.106-0.89-0.318-1.143s-0.465-0.38-0.76-0.38c-0.292,0-0.55,0.135-0.775,0.404
		C42.023,27.615,41.911,28.007,41.911,28.52z"/>
	<path class="st2" d="M49.305,31.623h-0.609v-1.131h-0.099l-0.79-1.236c-0.129-0.202-0.241-0.344-0.337-0.424
		c-0.146-0.123-0.318-0.185-0.519-0.185v1.845h-0.74v-3.99h0.74v1.725c0.274,0,0.477-0.081,0.609-0.244
		c0.044-0.053,0.145-0.253,0.304-0.601c0.11-0.241,0.192-0.401,0.247-0.481c0.121-0.183,0.26-0.298,0.419-0.346
		c0.118-0.035,0.307-0.053,0.567-0.053h0.148v0.561l-0.206-0.004c-0.206-0.003-0.351,0.046-0.436,0.146
		c-0.028,0.032-0.095,0.174-0.202,0.424c-0.102,0.236-0.191,0.4-0.268,0.492c-0.104,0.126-0.262,0.233-0.473,0.323
		c0.321,0.078,0.634,0.349,0.938,0.812l0.448,0.681h0.255V31.623z"/>
	<path class="st2" d="M50.465,26.502h0.686v1.56h0.869c0.566,0,1.002,0.108,1.308,0.325c0.306,0.217,0.459,0.515,0.459,0.896
		c0,0.333-0.128,0.618-0.383,0.854c-0.255,0.237-0.664,0.355-1.225,0.355h-1.714V26.502z M51.15,29.937h0.72
		c0.435,0,0.744-0.053,0.93-0.158c0.185-0.105,0.278-0.27,0.278-0.492c0-0.173-0.068-0.327-0.206-0.462
		c-0.137-0.136-0.44-0.203-0.91-0.203H51.15V29.937z M54.3,26.502h0.686v3.99H54.3V26.502z"/>
	<path class="st2" d="M56.937,26.502h3.184v3.99h-0.682v-3.43h-1.817v1.987c0,0.463-0.015,0.769-0.045,0.916
		c-0.031,0.148-0.114,0.277-0.251,0.388s-0.335,0.165-0.594,0.165c-0.16,0-0.344-0.01-0.552-0.03v-0.563h0.301
		c0.143,0,0.244-0.015,0.305-0.043c0.061-0.029,0.102-0.074,0.122-0.138c0.021-0.063,0.03-0.267,0.03-0.612V26.502z"/>
	<path class="st2" d="M61.714,26.502H62.4v1.56h0.869c0.566,0,1.002,0.108,1.308,0.325c0.306,0.217,0.459,0.515,0.459,0.896
		c0,0.333-0.128,0.618-0.383,0.854c-0.255,0.237-0.664,0.355-1.225,0.355h-1.714V26.502z M62.4,29.937h0.72
		c0.435,0,0.744-0.053,0.93-0.158c0.185-0.105,0.278-0.27,0.278-0.492c0-0.173-0.068-0.327-0.206-0.462
		c-0.137-0.136-0.44-0.203-0.91-0.203H62.4V29.937z M65.549,26.502h0.686v3.99h-0.686V26.502z"/>
	<path class="st2" d="M73.009,26.502v1.725c0.219,0,0.372-0.041,0.461-0.124c0.089-0.082,0.219-0.323,0.389-0.721
		c0.16-0.379,0.304-0.62,0.431-0.726c0.124-0.103,0.322-0.154,0.594-0.154h0.251v0.561l-0.187-0.004
		c-0.183,0-0.299,0.026-0.35,0.078c-0.054,0.056-0.135,0.22-0.244,0.492c-0.102,0.261-0.195,0.441-0.282,0.541
		c-0.086,0.101-0.221,0.192-0.403,0.274c0.297,0.078,0.587,0.349,0.868,0.812l0.754,1.236h-0.754l-0.735-1.236
		c-0.149-0.25-0.28-0.414-0.392-0.492c-0.112-0.077-0.245-0.116-0.4-0.116v1.845h-0.7v-1.845c-0.152,0-0.285,0.038-0.396,0.114
		c-0.111,0.077-0.242,0.241-0.393,0.494l-0.734,1.236h-0.755l0.751-1.236c0.284-0.463,0.575-0.733,0.872-0.812
		c-0.203-0.093-0.346-0.193-0.427-0.302c-0.081-0.109-0.203-0.369-0.365-0.78c-0.057-0.138-0.116-0.223-0.18-0.255
		c-0.065-0.033-0.163-0.049-0.293-0.049c-0.033,0-0.101,0.001-0.202,0.004v-0.561h0.096c0.264,0,0.45,0.016,0.558,0.047
		c0.108,0.032,0.205,0.098,0.29,0.199s0.195,0.313,0.333,0.634c0.167,0.393,0.295,0.632,0.383,0.717
		c0.088,0.086,0.241,0.128,0.463,0.128v-1.725H73.009z"/>
	<path class="st2" d="M79.641,26.502l-1.53,3.99v1.529h-0.686v-1.529l-1.535-3.99h0.739l0.841,2.311
		c0.117,0.318,0.215,0.627,0.294,0.925c0.073-0.273,0.173-0.581,0.297-0.925l0.842-2.311H79.641z"/>
	<path class="st2" d="M80.771,26.502h0.686v1.725c0.218,0,0.371-0.041,0.459-0.124c0.087-0.082,0.216-0.323,0.386-0.721
		c0.135-0.316,0.244-0.523,0.328-0.624s0.18-0.168,0.289-0.203s0.284-0.053,0.525-0.053h0.138v0.561l-0.19-0.004
		c-0.181,0-0.296,0.026-0.347,0.078c-0.054,0.056-0.135,0.22-0.244,0.492c-0.104,0.261-0.199,0.441-0.285,0.541
		c-0.087,0.101-0.22,0.192-0.4,0.274c0.295,0.078,0.584,0.349,0.868,0.812l0.751,1.236H82.98l-0.731-1.236
		c-0.15-0.248-0.281-0.411-0.393-0.49s-0.245-0.118-0.399-0.118v1.845h-0.686V26.502z"/>
	<path class="st2" d="M84.451,26.502h3.287v0.561h-1.303v3.43h-0.682v-3.43h-1.303V26.502z"/>
	<path class="st2" d="M91.621,29.207l0.708,0.087c-0.111,0.408-0.318,0.725-0.621,0.95c-0.302,0.226-0.688,0.338-1.157,0.338
		c-0.592,0-1.061-0.18-1.407-0.539s-0.521-0.863-0.521-1.512c0-0.672,0.176-1.192,0.526-1.563c0.351-0.37,0.805-0.556,1.363-0.556
		c0.541,0,0.982,0.182,1.325,0.545s0.515,0.874,0.515,1.532c0,0.041-0.002,0.101-0.004,0.181h-3.017
		c0.025,0.438,0.151,0.774,0.377,1.007c0.226,0.233,0.508,0.35,0.846,0.35c0.251,0,0.466-0.065,0.644-0.195
		S91.516,29.493,91.621,29.207z M89.37,28.114h2.259c-0.031-0.336-0.117-0.588-0.26-0.756c-0.218-0.26-0.501-0.391-0.849-0.391
		c-0.315,0-0.58,0.104-0.794,0.313C89.511,27.488,89.392,27.766,89.37,28.114z"/>
	<path class="st2" d="M97.453,31.623h-0.563v-1.131h-0.564v-1.77h-1.9v1.77h-0.686v-3.99h0.686v1.661h1.9v-1.661h0.686v3.435h0.442
		V31.623z"/>
	<path class="st2" d="M98.592,25.762v-0.777h0.686v0.777H98.592z M98.592,30.492v-3.99h0.686v3.99H98.592z"/>
	<path class="st2" d="M101.762,28.688v-0.529c0.289-0.003,0.487-0.014,0.592-0.034c0.105-0.02,0.205-0.08,0.3-0.18
		c0.094-0.101,0.141-0.226,0.141-0.376c0-0.183-0.062-0.329-0.185-0.438c-0.123-0.109-0.283-0.164-0.479-0.164
		c-0.386,0-0.656,0.225-0.811,0.673l-0.651-0.105c0.203-0.749,0.693-1.123,1.47-1.123c0.432,0,0.771,0.116,1.015,0.35
		c0.245,0.232,0.368,0.511,0.368,0.834c0,0.325-0.16,0.585-0.48,0.777c0.203,0.108,0.355,0.245,0.457,0.411
		c0.102,0.167,0.152,0.364,0.152,0.592c0,0.358-0.132,0.649-0.396,0.872c-0.265,0.223-0.634,0.334-1.108,0.334
		c-0.922,0-1.456-0.404-1.604-1.213l0.644-0.136c0.059,0.256,0.177,0.453,0.356,0.594c0.179,0.141,0.384,0.21,0.615,0.21
		c0.23,0,0.423-0.064,0.576-0.193c0.154-0.129,0.23-0.293,0.23-0.494c0-0.155-0.048-0.29-0.145-0.405s-0.199-0.188-0.309-0.216
		c-0.109-0.029-0.307-0.043-0.594-0.043C101.896,28.686,101.843,28.687,101.762,28.688z"/>
</g>
</svg>