<svg xmlns="http://www.w3.org/2000/svg" viewBox="0 0 119.66407 40"><path d="M110.135 0H9.535c-.367 0-.73 0-1.095.002-.306.002-.61.008-.92.013A13.215 13.215 0 0 0 5.518.19a6.665 6.665 0 0 0-1.9.628 6.438 6.438 0 0 0-1.62 1.18A6.258 6.258 0 0 0 .82 3.617 6.6 6.6 0 0 0 .193 5.52a12.993 12.993 0 0 0-.18 2.003c-.008.307-.01.615-.014.92V31.56c.005.31.006.61.015.92a12.992 12.992 0 0 0 .18 2.002 6.588 6.588 0 0 0 .624 1.905A6.208 6.208 0 0 0 1.997 38a6.274 6.274 0 0 0 1.618 1.18 6.7 6.7 0 0 0 1.9.63 13.455 13.455 0 0 0 2.005.177c.31.007.614.01.92.01.366.003.728.003 1.095.003h100.6c.36 0 .724 0 1.084-.002.303 0 .616-.004.92-.01a13.28 13.28 0 0 0 2-.178 6.804 6.804 0 0 0 1.91-.63 6.277 6.277 0 0 0 1.616-1.18 6.395 6.395 0 0 0 1.182-1.613 6.604 6.604 0 0 0 .62-1.905 13.506 13.506 0 0 0 .184-2.002c.004-.31.004-.61.004-.92.008-.365.008-.726.008-1.095V9.535c0-.365 0-.728-.008-1.09 0-.307 0-.615-.004-.922a13.507 13.507 0 0 0-.185-2.002 6.618 6.618 0 0 0-.62-1.902 6.466 6.466 0 0 0-2.798-2.8 6.768 6.768 0 0 0-1.91-.627 13.044 13.044 0 0 0-2-.175c-.304-.005-.617-.01-.92-.013C110.86 0 110.493 0 110.134 0z" fill="#a6a6a6"/><path d="M8.445 39.125c-.305 0-.602-.004-.904-.01a12.687 12.687 0 0 1-1.87-.164 5.884 5.884 0 0 1-1.655-.547 5.406 5.406 0 0 1-1.397-1.016 5.32 5.32 0 0 1-1.02-1.397 5.722 5.722 0 0 1-.544-1.657 12.414 12.414 0 0 1-.166-1.875c-.007-.21-.015-.913-.015-.913v-23.1s.01-.692.015-.895a12.37 12.37 0 0 1 .165-1.872 5.755 5.755 0 0 1 .544-1.662 5.373 5.373 0 0 1 1.015-1.398 5.565 5.565 0 0 1 1.402-1.023 5.823 5.823 0 0 1 1.653-.544A12.586 12.586 0 0 1 7.543.888l.902-.012h102.77l.912.013a12.385 12.385 0 0 1 1.858.162 5.938 5.938 0 0 1 1.67.548 5.594 5.594 0 0 1 2.416 2.42 5.763 5.763 0 0 1 .536 1.65 12.995 12.995 0 0 1 .174 1.886c.003.283.003.588.003.89.008.375.008.732.008 1.092v20.93c0 .362 0 .717-.007 1.074 0 .325 0 .623-.004.93a12.73 12.73 0 0 1-.172 1.853 5.74 5.74 0 0 1-.54 1.67 5.48 5.48 0 0 1-1.015 1.386 5.413 5.413 0 0 1-1.4 1.02 5.862 5.862 0 0 1-1.668.55 12.542 12.542 0 0 1-1.87.164c-.292.007-.598.01-.896.01l-1.085.003z"/><g data-name="&lt;Group&gt;"><g data-name="&lt;Group&gt;" fill="#fff"><path data-name="&lt;Path&gt;" d="M24.77 20.3a4.95 4.95 0 0 1 2.355-4.15 5.066 5.066 0 0 0-3.99-2.16c-1.68-.175-3.308 1.006-4.164 1.006-.87 0-2.188-.988-3.607-.958a5.315 5.315 0 0 0-4.473 2.728c-1.934 3.348-.49 8.27 1.36 10.976.928 1.325 2.01 2.805 3.43 2.753 1.386-.058 1.904-.885 3.578-.885 1.66 0 2.145.885 3.59.852 1.49-.025 2.427-1.332 3.322-2.67a10.962 10.962 0 0 0 1.518-3.092 4.782 4.782 0 0 1-2.92-4.4zM22.037 12.21a4.872 4.872 0 0 0 1.115-3.49 4.957 4.957 0 0 0-3.208 1.66 4.636 4.636 0 0 0-1.144 3.36 4.1 4.1 0 0 0 3.237-1.53z"/></g><g fill="#fff"><path d="M42.302 27.14H37.57l-1.138 3.356h-2.005l4.484-12.418h2.084l4.483 12.418h-2.04zm-4.243-1.55h3.75l-1.85-5.446h-.05zM55.16 25.97c0 2.813-1.506 4.62-3.78 4.62a3.07 3.07 0 0 1-2.847-1.583h-.043v4.484h-1.86V21.443h1.8v1.506h.034a3.212 3.212 0 0 1 2.883-1.6c2.298 0 3.813 1.816 3.813 4.622zm-1.91 0c0-1.833-.948-3.038-2.393-3.038-1.42 0-2.375 1.23-2.375 3.038 0 1.824.955 3.046 2.375 3.046 1.445 0 2.393-1.197 2.393-3.046zM65.125 25.97c0 2.813-1.506 4.62-3.78 4.62a3.07 3.07 0 0 1-2.847-1.583h-.043v4.484h-1.86V21.443h1.8v1.506h.034a3.212 3.212 0 0 1 2.882-1.6c2.298 0 3.813 1.816 3.813 4.622zm-1.91 0c0-1.833-.948-3.038-2.393-3.038-1.42 0-2.375 1.23-2.375 3.038 0 1.824.955 3.046 2.375 3.046 1.445 0 2.392-1.197 2.392-3.046zM71.71 27.036c.138 1.232 1.334 2.04 2.97 2.04 1.566 0 2.693-.808 2.693-1.92 0-.963-.68-1.54-2.29-1.935l-1.61-.387c-2.28-.55-3.338-1.617-3.338-3.348 0-2.142 1.867-3.614 4.52-3.614 2.623 0 4.422 1.473 4.482 3.615H77.26c-.11-1.24-1.135-1.987-2.633-1.987s-2.52.757-2.52 1.858c0 .878.653 1.395 2.254 1.79l1.37.336c2.547.603 3.605 1.626 3.605 3.443 0 2.323-1.85 3.778-4.793 3.778-2.754 0-4.614-1.42-4.734-3.667zM83.346 19.3v2.142h1.722v1.472h-1.722v4.99c0 .777.345 1.138 1.102 1.138a5.808 5.808 0 0 0 .61-.043v1.462a5.104 5.104 0 0 1-1.03.086c-1.834 0-2.55-.69-2.55-2.445v-5.19h-1.315v-1.47h1.316V19.3zM86.065 25.97c0-2.85 1.678-4.64 4.294-4.64 2.624 0 4.294 1.79 4.294 4.64 0 2.856-1.66 4.638-4.295 4.638-2.634 0-4.295-1.782-4.295-4.638zm6.695 0c0-1.954-.895-3.108-2.4-3.108s-2.4 1.162-2.4 3.108c0 1.962.893 3.106 2.4 3.106s2.4-1.144 2.4-3.106zM96.186 21.442h1.773v1.54H98a2.16 2.16 0 0 1 2.177-1.634 2.866 2.866 0 0 1 .636.07v1.737a2.598 2.598 0 0 0-.835-.112 1.873 1.873 0 0 0-1.936 2.083v5.37h-1.858zM109.384 27.837c-.25 1.643-1.85 2.77-3.898 2.77-2.634 0-4.27-1.763-4.27-4.594 0-2.84 1.645-4.682 4.192-4.682 2.505 0 4.08 1.722 4.08 4.467v.637h-6.395v.112a2.358 2.358 0 0 0 2.436 2.564 2.048 2.048 0 0 0 2.09-1.273zm-6.282-2.702h4.526a2.177 2.177 0 0 0-2.22-2.298 2.292 2.292 0 0 0-2.306 2.298z"/></g></g><g data-name="&lt;Group&gt;"><g fill="#fff"><path d="M37.826 8.73a2.64 2.64 0 0 1 2.808 2.966c0 1.906-1.03 3.002-2.808 3.002H35.67V8.73zm-1.228 5.124h1.125a1.876 1.876 0 0 0 1.967-2.146 1.88 1.88 0 0 0-1.967-2.134h-1.125zM41.68 12.444a2.133 2.133 0 1 1 4.248 0 2.134 2.134 0 1 1-4.247 0zm3.334 0c0-.976-.44-1.547-1.208-1.547-.773 0-1.207.57-1.207 1.547 0 .984.433 1.55 1.206 1.55.77 0 1.208-.57 1.208-1.55zM51.573 14.698h-.922l-.93-3.317h-.07l-.926 3.318h-.913l-1.24-4.503h.9l.807 3.436h.067l.926-3.435h.852l.926 3.436h.07l.803-3.435h.89zM53.854 10.195h.855v.715h.065a1.348 1.348 0 0 1 1.344-.802 1.465 1.465 0 0 1 1.558 1.675v2.915h-.89v-2.692c0-.724-.313-1.084-.97-1.084a1.033 1.033 0 0 0-1.076 1.14V14.7h-.888zM59.094 8.437h.888v6.26h-.888zM61.218 12.444a2.133 2.133 0 1 1 4.247 0 2.134 2.134 0 1 1-4.247 0zm3.333 0c0-.976-.438-1.547-1.207-1.547-.773 0-1.207.57-1.207 1.547 0 .984.434 1.55 1.207 1.55.77 0 1.208-.57 1.208-1.55zM66.4 13.424c0-.81.604-1.278 1.676-1.344l1.22-.07v-.39c0-.474-.315-.743-.922-.743-.497 0-.84.182-.94.5h-.86c.092-.773.82-1.27 1.84-1.27 1.13 0 1.766.563 1.766 1.514V14.7h-.855v-.633h-.07a1.515 1.515 0 0 1-1.353.707 1.36 1.36 0 0 1-1.5-1.348zm2.895-.384v-.377l-1.1.07c-.62.042-.9.253-.9.65 0 .405.35.64.834.64a1.062 1.062 0 0 0 1.165-.983zM71.348 12.444c0-1.423.732-2.324 1.87-2.324a1.484 1.484 0 0 1 1.38.79h.067V8.437h.888v6.26h-.85v-.71h-.072a1.563 1.563 0 0 1-1.413.785c-1.145 0-1.87-.9-1.87-2.328zm.918 0c0 .955.45 1.53 1.203 1.53.748 0 1.21-.583 1.21-1.526 0-.938-.467-1.53-1.21-1.53-.75 0-1.204.58-1.204 1.526zM79.23 12.444a2.133 2.133 0 1 1 4.247 0 2.134 2.134 0 1 1-4.247 0zm3.333 0c0-.976-.438-1.547-1.208-1.547-.772 0-1.207.57-1.207 1.547 0 .984.435 1.55 1.207 1.55.77 0 1.208-.57 1.208-1.55zM84.67 10.195h.855v.715h.066a1.348 1.348 0 0 1 1.345-.802 1.465 1.465 0 0 1 1.56 1.675v2.915h-.89v-2.692c0-.724-.314-1.084-.972-1.084a1.033 1.033 0 0 0-1.075 1.14V14.7h-.89zM93.515 9.074v1.14h.976v.75h-.975v2.315c0 .47.194.678.637.678a2.967 2.967 0 0 0 .34-.02v.74a2.916 2.916 0 0 1-.485.045c-.988 0-1.38-.348-1.38-1.216v-2.543h-.716v-.75h.716v-1.14zM95.705 8.437h.88v2.48h.07a1.386 1.386 0 0 1 1.374-.805 1.483 1.483 0 0 1 1.55 1.68v2.906h-.89V12.01c0-.72-.335-1.084-.963-1.084a1.052 1.052 0 0 0-1.134 1.142v2.63h-.888zM104.76 13.482a1.828 1.828 0 0 1-1.95 1.303 2.045 2.045 0 0 1-2.08-2.325 2.077 2.077 0 0 1 2.076-2.352c1.253 0 2.01.856 2.01 2.27v.31h-3.18v.05a1.19 1.19 0 0 0 1.198 1.29 1.08 1.08 0 0 0 1.072-.546zm-3.125-1.45h2.275a1.086 1.086 0 0 0-1.11-1.168 1.152 1.152 0 0 0-1.165 1.167z"/></g></g></svg>