<svg id="googleplay_ru" xmlns="http://www.w3.org/2000/svg" viewBox="-218 377 135 40"><style>.st0{fill:none}.st1{fill:#a6a6a6}.st2{fill:#FFF}.st3{fill:url(#SVGID_1_)}.st4{fill:url(#SVGID_2_)}.st5{fill:url(#SVGID_3_)}.st6{fill:url(#SVGID_4_)}.st7{opacity:.2;enable-background:new}.st8{opacity:.12}.st8,.st9{enable-background:new}.st9{opacity:.25;fill:#FFF}.st10{fill:#FFF;stroke:#FFF;stroke-width:.2;stroke-miterlimit:10}</style><path class="st0" d="M-228 367h155v60h-155v-60z"/><path d="M-213 377h125c2.8 0 5 2.2 5 5v30c0 2.8-2.2 5-5 5h-125c-2.8 0-5-2.2-5-5v-30c0-2.8 2.2-5 5-5z"/><path class="st1" d="M-88 377.8c2.3 0 4.2 1.9 4.2 4.2v30c0 2.3-1.9 4.2-4.2 4.2h-125c-2.3 0-4.2-1.9-4.2-4.2v-30c0-2.3 1.9-4.2 4.2-4.2h125m0-.8h-125c-2.8 0-5 2.2-5 5v30c0 2.8 2.2 5 5 5h125c2.8 0 5-2.2 5-5v-30c0-2.8-2.2-5-5-5z"/><path class="st2" d="M-149.9 398.8c-2.3 0-4.2 1.9-4.2 4.3 0 2.3 1.9 4.2 4.3 4.2 2.3 0 4.2-1.9 4.2-4.2 0-2.3-1.8-4.2-4.1-4.3-.1-.1-.1-.1-.2 0zm0 6.8c-1.4.1-2.7-1-2.8-2.4-.1-1.4 1-2.7 2.4-2.8 1.4-.1 2.7 1 2.8 2.4v.2c.1 1.4-.9 2.5-2.4 2.6.1 0 .1 0 0 0zm-9.3-6.8c-2.3 0-4.2 1.9-4.2 4.3 0 2.3 1.9 4.2 4.3 4.2 2.3 0 4.2-1.9 4.2-4.2 0-2.3-1.8-4.2-4.1-4.3-.1-.1-.1-.1-.2 0zm0 6.8c-1.4.1-2.7-1-2.8-2.4s1-2.7 2.4-2.8c1.4-.1 2.7 1 2.8 2.4v.2c.1 1.4-1 2.5-2.4 2.6.1 0 0 0 0 0zm-11.1-5.5v1.8h4.3c-.1.8-.4 1.6-1 2.3-.9.9-2.1 1.4-3.3 1.3-2.7 0-4.8-2.1-4.8-4.8s2.1-4.8 4.8-4.8c1.2 0 2.4.4 3.3 1.3l1.3-1.3c-1.2-1.2-2.8-1.9-4.5-1.9-3.6-.1-6.7 2.7-6.9 6.3-.1 3.6 2.7 6.7 6.3 6.9h.5c1.7.1 3.4-.6 4.6-1.9 1-1.2 1.6-2.7 1.6-4.2 0-.4 0-.8-.1-1.1l-6.1.1zm45.4 1.4c-.5-1.6-2-2.6-3.6-2.7-2.2 0-4 1.8-4 4v.3c0 2.3 1.8 4.2 4.1 4.2h.2c1.4 0 2.8-.7 3.5-1.9l-1.4-1c-.4.7-1.2 1.2-2.1 1.2-.9 0-1.7-.5-2.1-1.3l5.7-2.4-.3-.4zm-5.9 1.4c-.1-1.3.9-2.4 2.2-2.5.7 0 1.3.3 1.6.9l-3.8 1.6zm-4.6 4.1h1.9v-12.5h-1.9V407zm-3-7.3c-.6-.6-1.5-1-2.3-1-2.3.1-4.2 2.1-4 4.5.1 2.2 1.9 3.9 4 4 .9 0 1.7-.4 2.2-1h.1v.6c0 1.6-.9 2.5-2.3 2.5-1 0-1.8-.6-2.1-1.5l-1.6.7c.6 1.5 2.1 2.5 3.8 2.5 2.2 0 4-1.3 4-4.4V399h-1.7v.7zm-2.2 5.9c-1.4-.1-2.5-1.4-2.4-2.8.1-1.3 1.1-2.2 2.4-2.4 1.3.1 2.3 1.2 2.3 2.5v.1c.1 1.3-.9 2.5-2.2 2.6h-.1zm24.4-11.1h-4.5V407h1.9v-4.7h2.6c2.1.2 4-1.5 4.2-3.6.2-2.1-1.5-4-3.6-4.2h-.6zm0 6h-2.6v-4.3h2.7c1.2 0 2.1 1 2.1 2.1 0 1.3-1 2.2-2.2 2.2zm11.5-1.8c-1.4-.1-2.7.7-3.3 1.9l1.7.7c.3-.6 1-1 1.7-.9 1-.1 1.9.6 2 1.6v.1c-.6-.3-1.3-.5-1.9-.5-1.8 0-3.6 1-3.6 2.8.1 1.6 1.4 2.8 3 2.8h.1c1 .1 1.9-.4 2.4-1.2h.1v1h1.8v-4.8c-.1-2.2-1.8-3.5-4-3.5zm-.2 6.8c-.6 0-1.5-.3-1.5-1.1 0-1 1.1-1.3 2-1.3.6 0 1.2.1 1.7.4-.1 1.2-1 2.1-2.2 2zm10.6-6.5l-2.1 5.4h-.1l-2.2-5.4h-2l3.3 7.6-1.9 4.2h1.9l5.1-11.8h-2zm-16.8 8h1.9v-12.5h-1.9V407z"/><linearGradient id="SVGID_1_" gradientUnits="userSpaceOnUse" x1="-196.197" y1="975.712" x2="-212.977" y2="992.492" gradientTransform="translate(0 -590)"><stop offset="0" stop-color="#00a0ff"/><stop offset=".01" stop-color="#00a1ff"/><stop offset=".26" stop-color="#00beff"/><stop offset=".51" stop-color="#00d2ff"/><stop offset=".76" stop-color="#00dfff"/><stop offset="1" stop-color="#00e3ff"/></linearGradient><path class="st3" d="M-207.6 384.5c-.3.4-.5.9-.5 1.4V408c0 .5.1 1 .5 1.4l.1.1 12.4-12.4v-.3l-12.5-12.3z"/><linearGradient id="SVGID_2_" gradientUnits="userSpaceOnUse" x1="-184.17" y1="987" x2="-208.36" y2="987" gradientTransform="translate(0 -590)"><stop offset="0" stop-color="#ffe000"/><stop offset=".41" stop-color="#ffbd00"/><stop offset=".78" stop-color="orange"/><stop offset="1" stop-color="#ff9c00"/></linearGradient><path class="st4" d="M-191 401.3l-4.1-4.1v-.3l4.1-4.1h.1l4.9 2.8c1.4.8 1.4 2.1 0 2.9l-4.9 2.8h-.1z"/><linearGradient id="SVGID_3_" gradientUnits="userSpaceOnUse" x1="-193.173" y1="989.298" x2="-215.933" y2="1012.048" gradientTransform="translate(0 -590)"><stop offset="0" stop-color="#ff3a44"/><stop offset="1" stop-color="#c31162"/></linearGradient><path class="st5" d="M-190.9 401.2l-4.2-4.2-12.5 12.5c.6.5 1.5.5 2.1.1l14.6-8.4"/><linearGradient id="SVGID_4_" gradientUnits="userSpaceOnUse" x1="-210.702" y1="967.183" x2="-200.542" y2="977.342" gradientTransform="translate(0 -590)"><stop offset="0" stop-color="#32a071"/><stop offset=".07" stop-color="#2da771"/><stop offset=".48" stop-color="#15cf74"/><stop offset=".8" stop-color="#06e775"/><stop offset="1" stop-color="#00f076"/></linearGradient><path class="st6" d="M-190.9 392.8l-14.6-8.3c-.6-.5-1.5-.5-2.1.1l12.5 12.5 4.2-4.3z"/><path class="st7" d="M-191 401.1l-14.5 8.3c-.6.4-1.4.4-2 0l-.1.1.1.1c.6.4 1.4.4 2 0l14.6-8.3-.1-.2z"/><path class="st8" d="M-207.6 409.3c-.3-.4-.5-.9-.5-1.4v.2c0 .5.1 1 .5 1.4v-.2zm21.6-11l-5 2.8.1.1 4.9-2.8c.6-.3.9-.8 1-1.4-.1.6-.5 1-1 1.3z"/><path class="st9" d="M-205.5 384.6l19.5 11.1c.5.3.9.7 1 1.3-.1-.6-.4-1.2-1-1.4l-19.5-11.1c-1.4-.8-2.5-.1-2.5 1.5v.1c0-1.6 1.1-2.3 2.5-1.5z"/><path class="st10" d="M-175.9 391.3h-.7v-2h.6c.6-.6.9-1.5.8-2.3v-3h4v5.3h.7v2h-.7V390h-4.6l-.1 1.3zm1.4-4.3c0 .8-.2 1.6-.6 2.3h3v-4.6h-2.4v2.3zm9.9 2.2c-1.2 1.2-3.2 1.2-4.4 0-1.2-1.2-1.2-3.2 0-4.5 1.2-1.2 3.2-1.2 4.4 0 1.2 1.3 1.2 3.3 0 4.5zm-3.8-.5c.9.9 2.4.9 3.3 0 .9-1 .9-2.5 0-3.4-.9-.9-2.4-.9-3.3 0-.9 1-.9 2.4 0 3.4zm8.6 1.4c-1.7 0-3.1-1.3-3.1-3v-.1c0-1.7 1.3-3.1 3-3.1h.1c.8 0 1.7.3 2.2 1l-.5.5c-.4-.5-1-.8-1.7-.8-.6 0-1.2.2-1.7.7-.9 1-.9 2.5 0 3.5.4.4 1 .7 1.7.7s1.4-.3 1.8-.9l.5.5c-.3.3-.6.6-1 .8-.4.1-.9.2-1.3.2zm5.5-.1h-.8v-5.3h-1.7v-.7h4.1v.7h-1.7l.1 5.3zm6.9-6l-2.3 5.1c-.2.6-.7 1-1.4 1.1-.2 0-.4 0-.6-.1l.2-.7c.1.1.3.1.4.1.1 0 .3 0 .4-.1.1-.1.2-.2.3-.4l.2-.5-2-4.4h.9l1.5 3.4 1.4-3.5h1zm.9 6v-6h4.3v6h-.8v-5.3h-2.8v5.3h-.7zm5.7 0v-6h.8v2.6h3V384h.8v6h-.8v-2.7h-3v2.7h-.8zm10.9-.8c-1.2 1.2-3.2 1.2-4.4 0-1.2-1.2-1.2-3.2 0-4.5 1.2-1.2 3.2-1.2 4.4 0 1.1 1.3 1.1 3.3 0 4.5zm-3.9-.5c.9.9 2.4.9 3.3 0 .9-1 .9-2.5 0-3.4-.9-.9-2.4-.9-3.3 0-.9 1-.9 2.4 0 3.4zm7.9 1.3v-6h2.2c.5 0 .9.2 1.2.5.3.3.5.7.5 1.2 0 .3-.1.5-.2.8-.1.2-.4.4-.6.5.3.1.5.3.7.5.2.2.3.5.3.9 0 .5-.2.9-.5 1.2-.3.3-.8.5-1.3.5l-2.3-.1zm.8-3.4h1.4c.3 0 .5-.1.7-.3.4-.3.4-.9.1-1.3-.2-.2-.4-.3-.7-.3h-1.4l-.1 1.9zm0 2.7h1.6c.3 0 .5-.1.7-.3.2-.2.3-.4.3-.7 0-.6-.4-1-1-1h-1.5l-.1 2z"/></svg>